<svg width="24" height="24" viewBox="0 0 24 24" fill="none" xmlns="http://www.w3.org/2000/svg">
<path d="M12 16C14.2091 16 16 14.2091 16 12C16 9.79086 14.2091 8 12 8C9.79086 8 8 9.79086 8 12C8 14.2091 9.79086 16 12 16Z" stroke="white" stroke-width="2" stroke-linecap="round" stroke-linejoin="round"/>
<path d="M19.0999 7.82521L19.9658 7.32502L19.9658 7.32502L19.0999 7.82521ZM19.1656 7.93906L18.2997 8.43926L18.2997 8.43926L19.1656 7.93906ZM19.9252 8.68644L20.4113 7.81256L20.4113 7.81256L19.9252 8.68644ZM21.4763 9.54935L20.9902 10.4232L20.9902 10.4232L21.4763 9.54935ZM21.9902 10.421L20.9902 10.4232V10.4232L21.9902 10.421ZM21.9973 13.5728L20.9973 13.575V13.575L21.9973 13.5728ZM21.482 14.4497L20.9973 13.575V13.575L21.482 14.4497ZM19.9272 15.3114L20.4119 16.1861L19.9272 15.3114ZM19.1648 16.0603L18.2988 15.5602L18.2988 15.5602L19.1648 16.0603ZM19.0999 16.1727L19.9658 16.6729L19.9658 16.6729L19.0999 16.1727ZM18.832 17.2067L17.8321 17.2235V17.2235L18.832 17.2067ZM18.8619 18.9876L17.8621 19.0044L18.8619 18.9876ZM18.3641 19.8693L17.8621 19.0044H17.8621L18.3641 19.8693ZM15.6361 21.4526L16.138 22.3175H16.138L15.6361 21.4526ZM14.6194 21.4451L15.1341 20.5877L14.6194 21.4451ZM13.0933 20.5289L12.5786 21.3863L13.0933 20.5289ZM10.9047 20.5277L11.4185 21.3857L11.4185 21.3857L10.9047 20.5277ZM9.38566 21.4373L8.87194 20.5794L8.87194 20.5794L9.38566 21.4373ZM8.37266 21.4458L8.87194 20.5794L8.37266 21.4458ZM5.63602 19.8688L6.13531 19.0024L5.63602 19.8688ZM5.13545 18.9855L6.13531 19.0024L5.13545 18.9855ZM5.16538 17.2124L4.16553 17.1955L5.16538 17.2124ZM4.90143 16.1851L5.76931 15.6883L4.90143 16.1851ZM4.83191 16.0636L3.96403 16.5604L3.96403 16.5604L4.83191 16.0636ZM4.06844 15.3094L3.58229 16.1833H3.58229L4.06844 15.3094ZM2.52101 14.4485L2.03487 15.3224L2.03487 15.3224L2.52101 14.4485ZM2.00716 13.5769L1.00716 13.5792L2.00716 13.5769ZM2 10.4251L3 10.4228L2 10.4251ZM2.51528 9.54817L3 10.4228H3L2.51528 9.54817ZM4.07017 8.6865L3.58546 7.81183L3.58546 7.81183L4.07017 8.6865ZM4.83257 7.93754L3.96666 7.43735L3.96666 7.43735L4.83257 7.93754ZM4.89746 7.82521L5.76337 8.32541L5.76337 8.3254L4.89746 7.82521ZM5.16535 6.79118L6.1652 6.77436L5.16535 6.79118ZM5.13538 5.01027L4.13552 5.02709L5.13538 5.01027ZM5.63327 4.12856L6.13524 4.99345L6.13524 4.99345L5.63327 4.12856ZM8.36125 2.54527L8.86322 3.41016L8.86322 3.41016L8.36125 2.54527ZM9.37794 2.5528L8.86322 3.41016V3.41016L9.37794 2.5528ZM10.904 3.46897L10.3893 4.32633L10.904 3.46897ZM13.0926 3.47016L12.5789 2.6122L12.5789 2.6122L13.0926 3.47016ZM14.6117 2.56057L14.0979 1.70262V1.70262L14.6117 2.56057ZM15.6247 2.55209L16.124 1.68565L16.124 1.68565L15.6247 2.55209ZM18.3613 4.1291L18.8606 3.26266L18.3613 4.1291ZM18.8619 5.01236L17.862 4.99553V4.99554L18.8619 5.01236ZM18.832 6.79118L17.8321 6.77436V6.77436L18.832 6.79118ZM18.2339 8.3254L18.2997 8.43926L20.0315 7.43887L19.9658 7.32502L18.2339 8.3254ZM19.439 9.56032L20.9902 10.4232L21.9625 8.67547L20.4113 7.81256L19.439 9.56032ZM20.9902 10.4232L20.9973 13.575L22.9973 13.5705L22.9902 10.4187L20.9902 10.4232ZM20.9973 13.575L19.4424 14.4367L20.4119 16.1861L21.9668 15.3244L20.9973 13.575ZM18.2988 15.5602L18.2339 15.6725L19.9658 16.6729L20.0307 16.5605L18.2988 15.5602ZM17.8321 17.2235L17.8621 19.0044L19.8618 18.9708L19.8318 17.1899L17.8321 17.2235ZM17.8621 19.0044L15.1341 20.5877L16.138 22.3175L18.866 20.7342L17.8621 19.0044ZM15.1341 20.5877L13.608 19.6716L12.5786 21.3863L14.1047 22.3025L15.1341 20.5877ZM12.0639 19.2436H11.9322V21.2436H12.0639V19.2436ZM10.391 19.6698L8.87194 20.5794L9.89938 22.2953L11.4185 21.3857L10.391 19.6698ZM8.87194 20.5794L6.13531 19.0024L5.13674 20.7352L7.87337 22.3122L8.87194 20.5794ZM6.13531 19.0024L6.16524 17.2292L4.16553 17.1955L4.13559 18.9686L6.13531 19.0024ZM5.76931 15.6883L5.69979 15.5668L3.96403 16.5604L4.03355 16.6818L5.76931 15.6883ZM4.55458 14.4355L3.00716 13.5747L2.03487 15.3224L3.58229 16.1833L4.55458 14.4355ZM3.00716 13.5747L3 10.4228L1.00001 10.4274L1.00716 13.5792L3.00716 13.5747ZM3 10.4228L4.55489 9.56117L3.58546 7.81183L2.03057 8.6735L3 10.4228ZM5.69848 8.43774L5.76337 8.32541L4.03154 7.32502L3.96666 7.43735L5.69848 8.43774ZM6.1652 6.77436L6.13524 4.99345L4.13552 5.02709L4.16549 6.808L6.1652 6.77436ZM6.13524 4.99345L8.86322 3.41016L7.85928 1.68039L5.1313 3.26368L6.13524 4.99345ZM8.86322 3.41016L10.3893 4.32633L11.4187 2.6116L9.89265 1.69543L8.86322 3.41016ZM11.9334 4.75424H12.0651V2.75424H11.9334V4.75424ZM13.6063 4.32812L15.1254 3.41853L14.0979 1.70262L12.5789 2.6122L13.6063 4.32812ZM15.1254 3.41853L17.862 4.99554L18.8606 3.26266L16.124 1.68565L15.1254 3.41853ZM17.862 4.99554L17.8321 6.77436L19.8318 6.808L19.8618 5.02918L17.862 4.99554ZM17.862 4.99553L17.862 4.99553L19.8618 5.02918C19.874 4.30213 19.4907 3.62572 18.8606 3.26266L17.862 4.99553ZM15.1254 3.41853L15.1254 3.41853L16.124 1.68565C15.4955 1.32351 14.7202 1.33 14.0979 1.70262L15.1254 3.41853ZM12.0651 4.75424C12.6079 4.75424 13.1406 4.60697 13.6063 4.32812L12.5789 2.6122C12.4236 2.70515 12.2461 2.75424 12.0651 2.75424V4.75424ZM10.3893 4.32633C10.8557 4.60633 11.3894 4.75424 11.9334 4.75424V2.75424C11.7521 2.75424 11.5742 2.70494 11.4187 2.6116L10.3893 4.32633ZM8.86322 3.41016L8.86322 3.41016L9.89265 1.69543C9.26817 1.32053 8.48925 1.31476 7.85928 1.68039L8.86322 3.41016ZM6.13524 4.99345V4.99345L5.1313 3.26368C4.50431 3.62757 4.12333 4.30226 4.13552 5.02709L6.13524 4.99345ZM5.76337 8.3254C6.03546 7.85438 6.17436 7.31824 6.1652 6.77436L4.16549 6.808C4.16854 6.9893 4.12224 7.16801 4.03154 7.32502L5.76337 8.3254ZM4.55489 9.56117C5.03093 9.29736 5.42625 8.90902 5.69848 8.43773L3.96666 7.43735C3.87591 7.59444 3.74414 7.72389 3.58546 7.81183L4.55489 9.56117ZM3 10.4228L3 10.4228L2.03057 8.6735C1.39318 9.02672 0.99835 9.69867 1.00001 10.4274L3 10.4228ZM3.00716 13.5747L3.00716 13.5747L1.00716 13.5792C1.00881 14.3035 1.40192 14.9703 2.03487 15.3224L3.00716 13.5747ZM5.69979 15.5668C5.42825 15.0924 5.03225 14.7012 4.55458 14.4355L3.58229 16.1833C3.74152 16.2718 3.87351 16.4022 3.96403 16.5604L5.69979 15.5668ZM6.16524 17.2292C6.17436 16.6893 6.03757 16.1569 5.76931 15.6883L4.03355 16.6818C4.12297 16.838 4.16857 17.0155 4.16553 17.1955L6.16524 17.2292ZM6.13531 19.0024V19.0024L4.13559 18.9686C4.12332 19.6957 4.50667 20.3722 5.13674 20.7352L6.13531 19.0024ZM8.87194 20.5794L8.87194 20.5794L7.87337 22.3122C8.50182 22.6744 9.27708 22.6679 9.89938 22.2953L8.87194 20.5794ZM11.9322 19.2436C11.3894 19.2436 10.8567 19.3909 10.391 19.6698L11.4185 21.3857C11.5737 21.2927 11.7513 21.2436 11.9322 21.2436V19.2436ZM13.608 19.6716C13.1416 19.3916 12.6079 19.2436 12.0639 19.2436V21.2436C12.2452 21.2436 12.4231 21.2929 12.5786 21.3863L13.608 19.6716ZM15.1341 20.5877H15.1341L14.1047 22.3025C14.7292 22.6774 15.5081 22.6831 16.138 22.3175L15.1341 20.5877ZM17.8621 19.0044L17.8621 19.0044L18.866 20.7342C19.493 20.3703 19.874 19.6956 19.8618 18.9708L17.8621 19.0044ZM18.234 15.6725C17.9619 16.1435 17.823 16.6796 17.8321 17.2235L19.8318 17.1899C19.8288 17.0086 19.8751 16.8299 19.9658 16.6729L18.234 15.6725ZM19.4424 14.4367C18.9664 14.7005 18.5711 15.0889 18.2988 15.5602L20.0307 16.5605C20.1214 16.4034 20.2532 16.274 20.4119 16.1861L19.4424 14.4367ZM20.9973 13.575V13.575L21.9668 15.3244C22.6041 14.9712 22.999 14.2992 22.9973 13.5705L20.9973 13.575ZM20.9902 10.4232L20.9902 10.4232L22.9902 10.4187C22.9885 9.69439 22.5954 9.02758 21.9625 8.67547L20.9902 10.4232ZM18.2997 8.43926C18.5711 8.9091 18.9649 9.29654 19.439 9.56032L20.4113 7.81256C20.2533 7.72463 20.122 7.59549 20.0315 7.43887L18.2997 8.43926ZM19.9658 7.32502C19.8751 7.16801 19.8288 6.9893 19.8318 6.808L17.8321 6.77436C17.823 7.31824 17.9619 7.85438 18.234 8.3254L19.9658 7.32502Z" fill="white"/>
</svg>
