<svg width="30" height="11" viewBox="0 0 30 11" fill="none" xmlns="http://www.w3.org/2000/svg">
<path d="M11.9939 5.24796L11.5526 5.0128L11.9939 5.24796ZM14.3988 9.88959L14.557 10.3639L14.3988 9.88959ZM8.55828 3.0131L8.57911 3.51266L8.55828 3.0131ZM0.514887 4.78303C0.448004 5.05095 0.610977 5.32236 0.878897 5.38924L5.24491 6.47916C5.51283 6.54604 5.78424 6.38307 5.85113 6.11515C5.91801 5.84723 5.75504 5.57582 5.48711 5.50893L1.60621 4.54012L2.57503 0.659216C2.64191 0.391296 2.47894 0.119884 2.21102 0.0530014C1.9431 -0.0138814 1.67169 0.149091 1.60481 0.417012L0.514887 4.78303ZM29.2465 7.73546C26.8493 6.37697 23.1069 4.59372 19.6691 3.66917C17.9538 3.20786 16.2749 2.94926 14.8616 3.08762C13.4414 3.22667 12.21 3.77932 11.5526 5.0128L12.4351 5.48311C12.8772 4.65364 13.7271 4.20348 14.9591 4.08286C16.198 3.96157 17.7421 4.18647 19.4094 4.63486C22.7368 5.52972 26.3981 7.27067 28.7535 8.60547L29.2465 7.73546ZM11.5526 5.0128C10.575 6.8473 10.6875 8.37581 11.4498 9.3808C12.1898 10.3564 13.4733 10.7254 14.557 10.3639L14.2405 9.41528C13.5615 9.6418 12.7264 9.40912 12.2465 8.77647C11.789 8.1732 11.5804 7.08687 12.4351 5.48311L11.5526 5.0128ZM14.557 10.3639C15.2925 10.1185 15.7807 9.39854 15.9975 8.60908C16.2197 7.79993 16.1921 6.81632 15.8062 5.87489C15.0141 3.94278 12.7957 2.33597 8.53745 2.51353L8.57911 3.51266C12.5663 3.3464 14.2987 4.83401 14.8809 6.25419C15.1821 6.9889 15.1975 7.7459 15.0332 8.34428C14.8635 8.96236 14.5358 9.3168 14.2405 9.41528L14.557 10.3639ZM8.53745 2.51353C5.22344 2.65172 3.48187 2.99807 2.44576 3.4026C1.91756 3.60883 1.57698 3.82835 1.3105 4.03373C1.18673 4.12912 1.06936 4.22953 0.984482 4.29887C0.892437 4.37406 0.818872 4.42967 0.742605 4.47547L1.25739 5.33279C1.39585 5.24965 1.51339 5.15806 1.61715 5.0733C1.72807 4.98268 1.8112 4.91037 1.92094 4.82579C2.12148 4.67123 2.37999 4.5018 2.80945 4.33412C3.68868 3.99084 5.2968 3.64953 8.57911 3.51266L8.53745 2.51353Z" fill="white"/>
</svg>
