<svg width="20" height="20" viewBox="0 0 20 20" fill="none" xmlns="http://www.w3.org/2000/svg">
<path d="M19.1818 20C19 20 18.6364 20 18.4545 19.8174L0.272727 1.55251C-0.0909091 1.18721 -0.0909091 0.639269 0.272727 0.273973C0.636364 -0.0913242 1.18182 -0.0913242 1.54545 0.273973L19.7273 18.5388C20.0909 18.9041 20.0909 19.4521 19.7273 19.8174C19.7273 20 19.3636 20 19.1818 20Z" fill="white"/>
<path d="M0.999999 20C0.818181 20 0.454545 20 0.272727 19.8174C-0.0909091 19.4521 -0.0909091 18.9041 0.272727 18.5388L18.4545 0.273973C18.8182 -0.0913242 19.3636 -0.0913242 19.7273 0.273973C20.0909 0.639269 20.0909 1.18721 19.7273 1.55251L1.54545 19.8174C1.54545 20 1.18182 20 0.999999 20Z" fill="white"/>
</svg>
