<svg width="26" height="24" viewBox="0 0 26 24" fill="none" xmlns="http://www.w3.org/2000/svg">
<path d="M12.0109 18.8617C12.0109 19.2437 11.7903 19.5906 11.445 19.7525C11.3114 19.8157 11.1684 19.8462 11.0262 19.8462C10.8012 19.8462 10.5782 19.7689 10.398 19.6195L5.01599 15.1597H2.14951C1.60589 15.1602 1.16504 14.7191 1.16504 14.1755V10.2532C1.16504 9.70936 1.60589 9.2685 2.14951 9.2685H5.01622L10.3983 4.8087C10.6923 4.56497 11.1001 4.51301 11.4452 4.67612C11.7903 4.83806 12.0112 5.18524 12.0112 5.56691L12.0109 18.8617Z" fill="white"/>
<path d="M16.3608 8.63672L22.6391 14.915" stroke="white" stroke-width="2" stroke-linecap="round"/>
<path d="M16.3608 14.918L22.6391 8.63967" stroke="white" stroke-width="2" stroke-linecap="round"/>
</svg>
