<svg width="24" height="24" viewBox="0 0 24 24" fill="none" xmlns="http://www.w3.org/2000/svg">
<path d="M12.0109 18.8646C12.0109 19.2465 11.7903 19.5934 11.445 19.7554C11.3114 19.8185 11.1684 19.849 11.0262 19.849C10.8012 19.849 10.5782 19.7717 10.398 19.6223L5.01599 15.1625H2.14951C1.60589 15.163 1.16504 14.7219 1.16504 14.1783V10.256C1.16504 9.71217 1.60589 9.27131 2.14951 9.27131H5.01622L10.3983 4.81151C10.6923 4.56778 11.1001 4.51582 11.4452 4.67892C11.7903 4.84087 12.0112 5.18805 12.0112 5.56972L12.0109 18.8646ZM15.7943 17.3262C15.7703 17.3279 15.7473 17.3288 15.7235 17.3288C15.4634 17.3288 15.2127 17.226 15.0275 17.0406L14.8958 16.9084C14.5505 16.5638 14.51 16.0179 14.8008 15.626C15.538 14.6319 15.9271 13.4536 15.9271 12.2175C15.9271 10.8879 15.4853 9.64087 14.6493 8.61096C14.331 8.21951 14.3604 7.65096 14.7171 7.29446L14.8485 7.16281C15.0452 6.96615 15.3087 6.85896 15.5939 6.87597C15.8717 6.88995 16.131 7.02067 16.3072 7.23597C17.4669 8.655 18.0794 10.3779 18.0794 12.2177C18.0794 13.9313 17.5377 15.5623 16.5125 16.9338C16.3412 17.1624 16.0793 17.306 15.7943 17.3262ZM19.8645 20.3686C19.6865 20.579 19.429 20.7053 19.1534 20.717C19.1399 20.7174 19.1261 20.7179 19.1121 20.7179C18.8514 20.7179 18.6012 20.6149 18.4159 20.4297L18.2866 20.3004C17.9252 19.9392 17.9007 19.3616 18.2293 18.9706C19.817 17.0823 20.6917 14.6841 20.6917 12.2175C20.6917 9.65182 19.7553 7.18191 18.0554 5.26285C17.7108 4.87325 17.7283 4.28351 18.0951 3.91535L18.2241 3.78603C18.4157 3.59357 18.6645 3.48755 18.95 3.49663C19.221 3.50432 19.4773 3.62409 19.6574 3.82681C21.7121 6.14013 22.8438 9.12032 22.8438 12.2175C22.8443 15.1974 21.7862 18.0924 19.8645 20.3686Z" fill="white"/>
</svg>
